<svg width="264" height="34" viewBox="0 0 264 34" fill="none" xmlns="http://www.w3.org/2000/svg">
<path d="M46.7012 1.24085C46.09 2.95046 45.4591 4.67386 44.8088 6.41105C44.1975 8.12067 43.5667 9.84407 42.9164 11.5813C42.3051 13.2909 41.6856 15.0143 41.0579 16.7515C40.4466 18.4611 39.8158 20.1845 39.1655 21.9217C38.5542 23.6313 37.9234 25.3547 37.2731 27.0919C36.6618 28.8015 36.0423 30.5249 35.4146 32.2621H20.2708L22.109 28.2086C22.0184 28.2086 21.9392 28.2086 21.8713 28.2086C21.8034 28.2086 21.7242 28.2086 21.6336 28.2086H17.8986C17.8307 28.2086 17.7628 28.2086 17.6949 28.2086C17.627 28.2086 17.5591 28.2086 17.4912 28.2086L14.4986 32.2621H-5.87185e-05C1.44256 30.5249 2.86564 28.8015 4.26919 27.0919C5.71181 25.3547 7.13489 23.6313 8.53844 21.9217C9.98105 20.1845 11.4041 18.4611 12.8077 16.7515C14.2503 15.0143 15.6734 13.2909 17.0769 11.5813C18.5196 9.84407 19.9426 8.12067 21.3462 6.41105C22.7888 4.67386 24.2119 2.95046 25.6154 1.24085H46.7012ZM19.6485 25.272C19.6321 25.2995 19.6239 25.3133 19.6239 25.3133C19.6239 25.3133 19.6352 25.3133 19.6578 25.3133H23.3928C23.4155 25.3133 23.4268 25.3133 23.4268 25.3133C23.4432 25.2857 23.4514 25.272 23.4514 25.272C23.4514 25.272 23.6033 24.9411 23.9071 24.2793C24.2274 23.5899 24.6122 22.7351 25.0617 21.7149C25.5503 20.667 26.0604 19.564 26.5921 18.4059C27.1402 17.2202 27.6585 16.1035 28.147 15.0556C28.6356 14.0078 29.0205 13.153 29.3016 12.4912C29.6054 11.8294 29.7573 11.4985 29.7573 11.4985C29.7573 11.4985 29.746 11.4985 29.7234 11.4985C29.7234 11.4985 29.4809 11.8294 28.996 12.4912C28.5112 13.153 27.8773 14.0078 27.0944 15.0556C26.3342 16.1035 25.5216 17.2202 24.6567 18.4059C23.8081 19.564 23.0037 20.667 22.2435 21.7149C21.4997 22.7351 20.8772 23.5899 20.3759 24.2793C19.891 24.9411 19.6485 25.272 19.6485 25.272Z" fill="#08004E"/>
<path d="M63.994 13.5666C67.3895 13.5666 70.1236 13.7458 72.1962 14.1043C74.2689 14.4628 75.7543 15.0281 76.6524 15.8001C77.5669 16.5447 77.9652 17.5098 77.8472 18.6955C77.7457 19.8536 77.2184 21.2323 76.2654 22.8316C75.2302 24.5688 73.846 26.113 72.1128 27.4641C70.4187 28.7877 68.4742 29.9045 66.2796 30.8144C64.1239 31.6968 61.8281 32.3586 59.3921 32.7998C56.9624 33.2685 54.5025 33.5029 52.0125 33.5029C49.2508 33.5029 46.8861 33.2547 44.9182 32.7584C42.9503 32.2621 41.4781 31.5038 40.5015 30.4835C39.5413 29.4357 39.1498 28.0983 39.327 26.4714C39.5268 24.8446 40.3796 22.9006 41.8854 20.6395L57.0987 19.44C56.4247 20.2672 56.0592 20.9566 56.0022 21.508C55.9679 22.0595 56.1741 22.4732 56.621 22.7489C57.0679 23.0246 57.6648 23.1625 58.4118 23.1625C58.8645 23.1625 59.2966 23.1211 59.7081 23.0384C60.1422 22.9557 60.5557 22.8316 60.9486 22.6662C61.3414 22.5007 61.691 22.2939 61.9974 22.0457C62.3201 21.77 62.5801 21.4667 62.7773 21.1358C63.1716 20.474 63.1434 20.0466 62.6925 19.8536C62.2642 19.6606 61.5181 19.564 60.4542 19.564C60.4089 19.564 60.3523 19.564 60.2844 19.564C60.2392 19.564 60.1826 19.564 60.1147 19.564C60.0694 19.564 60.0128 19.564 59.9449 19.564C59.877 19.564 59.8091 19.564 59.7412 19.564C59.6959 19.564 59.6506 19.564 59.6053 19.564C56.2552 19.564 53.5941 19.3572 51.6222 18.9436C49.6667 18.5024 48.2739 17.8958 47.4437 17.1237C46.6135 16.3516 46.239 15.4417 46.3201 14.3938C46.4176 13.3184 46.8607 12.119 47.6494 10.7954C48.4874 9.38909 49.5488 8.12067 50.8337 6.99012C52.135 5.83199 53.5949 4.82552 55.2134 3.97072C56.8711 3.08833 58.6194 2.35761 60.4585 1.77855C62.3202 1.19949 64.2355 0.758297 66.2045 0.454977C68.1962 0.151659 70.1767 0 72.1461 0C74.9303 0 77.2396 0.303319 79.0738 0.909956C80.9307 1.51659 82.2693 2.38519 83.0896 3.51574C83.9326 4.64629 84.214 5.99744 83.9339 7.56918C83.6538 9.14092 82.7607 10.9057 81.2545 12.8635L66.763 13.6493C67.4885 12.8497 67.8633 12.2017 67.8874 11.7053C67.928 11.1814 67.7197 10.8092 67.2626 10.5886C66.8446 10.3404 66.2734 10.2163 65.549 10.2163C65.0963 10.2163 64.656 10.2715 64.2281 10.3818C63.8166 10.4645 63.4175 10.6024 63.0309 10.7954C62.6833 10.9608 62.3563 11.1676 62.05 11.4158C61.7663 11.664 61.5423 11.9259 61.378 12.2017C61.1808 12.5326 61.107 12.8083 61.1567 13.0289C61.2227 13.2219 61.4122 13.3598 61.7251 13.4425C62.0606 13.5253 62.534 13.5666 63.1452 13.5666C63.1904 13.5666 63.2357 13.5666 63.281 13.5666C63.3489 13.5666 63.4055 13.5666 63.4508 13.5666C63.5187 13.5666 63.5753 13.5666 63.6205 13.5666C63.6884 13.5666 63.745 13.5666 63.7903 13.5666C63.8582 13.5666 63.9261 13.5666 63.994 13.5666Z" fill="#08004E"/>
<path d="M93.1233 20.019C93.1069 20.0466 93.0904 20.0742 93.074 20.1018C93.0966 20.1018 93.1193 20.1018 93.1419 20.1018H106.384L99.1381 32.2621H71.7367C72.7554 30.5525 73.7742 28.8428 74.7929 27.1332C75.8116 25.4236 76.8304 23.714 77.8491 22.0044C78.8843 20.2672 79.9112 18.5438 80.9299 16.8342C81.9487 15.1246 82.9674 13.415 83.9861 11.7053C85.0213 9.96815 86.0565 8.23096 87.0916 6.49378C88.1432 4.72901 89.1866 2.97804 90.2217 1.24085H104.313C103.376 2.81259 102.44 4.38433 101.503 5.95607C100.583 7.50024 99.6547 9.0582 98.7181 10.6299C97.7815 12.2017 96.8449 13.7734 95.9084 15.3452C94.9882 16.8893 94.0599 18.4473 93.1233 20.019Z" fill="#08004E"/>
<path d="M135.915 13.5666C139.311 13.5666 142.045 13.7458 144.118 14.1043C146.19 14.4628 147.676 15.0281 148.574 15.8001C149.488 16.5447 149.887 17.5098 149.769 18.6955C149.667 19.8536 149.14 21.2323 148.187 22.8316C147.152 24.5688 145.767 26.113 144.034 27.4641C142.34 28.7877 140.396 29.9045 138.201 30.8144C136.045 31.6968 133.75 32.3586 131.314 32.7998C128.884 33.2685 126.424 33.5029 123.934 33.5029C121.172 33.5029 118.807 33.2547 116.84 32.7584C114.872 32.2621 113.399 31.5038 112.423 30.4835C111.463 29.4357 111.071 28.0983 111.248 26.4714C111.448 24.8446 112.301 22.9006 113.807 20.6395L129.02 19.44C128.346 20.2672 127.981 20.9566 127.924 21.508C127.889 22.0595 128.096 22.4732 128.542 22.7489C128.989 23.0246 129.586 23.1625 130.333 23.1625C130.786 23.1625 131.218 23.1211 131.63 23.0384C132.064 22.9557 132.477 22.8316 132.87 22.6662C133.263 22.5007 133.612 22.2939 133.919 22.0457C134.242 21.77 134.502 21.4667 134.699 21.1358C135.093 20.474 135.065 20.0466 134.614 19.8536C134.186 19.6606 133.44 19.564 132.376 19.564C132.33 19.564 132.274 19.564 132.206 19.564C132.161 19.564 132.104 19.564 132.036 19.564C131.991 19.564 131.934 19.564 131.866 19.564C131.798 19.564 131.73 19.564 131.663 19.564C131.617 19.564 131.572 19.564 131.527 19.564C128.177 19.564 125.516 19.3572 123.544 18.9436C121.588 18.5024 120.195 17.8958 119.365 17.1237C118.535 16.3516 118.16 15.4417 118.241 14.3938C118.339 13.3184 118.782 12.119 119.571 10.7954C120.409 9.38909 121.47 8.12067 122.755 6.99012C124.056 5.83199 125.516 4.82552 127.135 3.97072C128.792 3.08833 130.541 2.35761 132.38 1.77855C134.242 1.19949 136.157 0.758297 138.126 0.454977C140.118 0.151659 142.098 0 144.067 0C146.852 0 149.161 0.303319 150.995 0.909956C152.852 1.51659 154.191 2.38519 155.011 3.51574C155.854 4.64629 156.135 5.99744 155.855 7.56918C155.575 9.14092 154.682 10.9057 153.176 12.8635L138.684 13.6493C139.41 12.8497 139.785 12.2017 139.809 11.7053C139.849 11.1814 139.641 10.8092 139.184 10.5886C138.766 10.3404 138.195 10.2163 137.47 10.2163C137.018 10.2163 136.577 10.2715 136.149 10.3818C135.738 10.4645 135.339 10.6024 134.952 10.7954C134.605 10.9608 134.278 11.1676 133.971 11.4158C133.688 11.664 133.464 11.9259 133.299 12.2017C133.102 12.5326 133.028 12.8083 133.078 13.0289C133.144 13.2219 133.334 13.3598 133.647 13.4425C133.982 13.5253 134.455 13.5666 135.067 13.5666C135.112 13.5666 135.157 13.5666 135.202 13.5666C135.27 13.5666 135.327 13.5666 135.372 13.5666C135.44 13.5666 135.497 13.5666 135.542 13.5666C135.61 13.5666 135.666 13.5666 135.712 13.5666C135.78 13.5666 135.848 13.5666 135.915 13.5666Z" fill="#08004E"/>
<path d="M180.988 1.24085H195.079C194.044 2.97804 193.009 4.71523 191.974 6.45241C190.938 8.1896 189.903 9.92679 188.868 11.664C187.833 13.4012 186.79 15.1521 185.738 16.9169C184.226 19.4538 182.706 22.0044 181.178 24.5688C179.65 27.1332 178.122 29.6976 176.594 32.2621H162.503C163.505 30.58 164.508 28.898 165.51 27.216C166.512 25.5339 167.514 23.8519 168.517 22.1698C168.533 22.1423 168.53 22.1285 168.507 22.1285C168.524 22.1009 168.521 22.0871 168.498 22.0871H163.846C163.824 22.0871 163.804 22.1009 163.788 22.1285C163.788 22.1285 163.78 22.1423 163.763 22.1698C162.761 23.8519 161.758 25.5339 160.756 27.216C159.754 28.898 158.752 30.58 157.749 32.2621H143.658C144.644 30.6076 145.63 28.9531 146.616 27.2987C147.602 25.6442 148.587 23.9897 149.573 22.3353C150.559 20.6808 151.545 19.0263 152.531 17.3719C153.517 15.7174 154.503 14.063 155.489 12.4085C156.474 10.754 157.46 9.09956 158.446 7.44509C159.071 6.39727 159.687 5.36322 160.295 4.34297C160.919 3.29514 161.535 2.2611 162.143 1.24085H176.234C175.446 2.56442 174.649 3.90178 173.844 5.25293C173.038 6.60407 172.233 7.95522 171.428 9.30637C170.64 10.6299 169.843 11.9673 169.037 13.3184C169.021 13.346 169.005 13.3736 168.988 13.4012C168.988 13.4012 168.999 13.4012 169.022 13.4012H173.674C173.697 13.4012 173.708 13.4012 173.708 13.4012C173.747 13.3736 173.775 13.346 173.791 13.3184C174.991 11.3055 176.19 9.29258 177.39 7.27965C178.589 5.26671 179.788 3.25378 180.988 1.24085Z" fill="#08004E"/>
<path d="M215.504 0C219.669 0 222.705 0.716935 224.613 2.1508C226.52 3.58467 227.416 5.55624 227.302 8.06552C227.187 10.5748 226.161 13.4563 224.222 16.7101C223.17 18.4749 221.937 20.1845 220.521 21.8389C219.121 23.4658 217.53 24.9962 215.748 26.4301C213.982 27.8364 212.042 29.0772 209.93 30.1526C207.834 31.2005 205.584 32.0139 203.179 32.593C200.78 33.1996 198.234 33.5029 195.54 33.5029C193.616 33.5029 191.949 33.3375 190.539 33.0066C189.135 32.7033 187.953 32.2759 186.991 31.7244C186.046 31.1453 185.313 30.4559 184.794 29.6563C184.297 28.8566 183.974 27.9742 183.825 27.0091C183.715 26.0165 183.75 24.9686 183.932 23.8657C184.137 22.7627 184.487 21.6046 184.984 20.3913C185.503 19.178 186.133 17.9509 186.872 16.7101C187.841 15.0832 188.931 13.539 190.142 12.0776C191.375 10.6162 192.7 9.265 194.119 8.02416C195.56 6.78331 197.078 5.68033 198.671 4.71523C200.304 3.72255 202.016 2.88153 203.808 2.19216C205.616 1.47523 207.487 0.93753 209.421 0.579063C211.394 0.193021 213.422 0 215.504 0ZM207.701 13.153C206.908 13.153 206.163 13.2633 205.466 13.4839C204.808 13.6769 204.202 13.9527 203.649 14.3111C203.135 14.642 202.667 15.0281 202.246 15.4692C201.863 15.8829 201.541 16.3103 201.278 16.7515C200.933 17.3305 200.732 17.8958 200.675 18.4473C200.618 18.9988 200.8 19.4538 201.22 19.8122C201.64 20.1707 202.371 20.3499 203.412 20.3499C204.023 20.3499 204.596 20.281 205.131 20.1431C205.689 20.0052 206.192 19.826 206.64 19.6054C207.127 19.3572 207.563 19.0815 207.948 18.7782C208.371 18.4473 208.727 18.1164 209.015 17.7855C209.319 17.427 209.578 17.0686 209.791 16.7101C210.038 16.2965 210.205 15.8829 210.293 15.4692C210.404 15.0556 210.399 14.6834 210.279 14.3525C210.176 13.994 209.918 13.7045 209.507 13.4839C209.095 13.2633 208.493 13.153 207.701 13.153Z" fill="#08004E"/>
<path d="M255.956 1.24085C258.061 1.24085 259.681 1.59932 260.816 2.31625C261.989 3.00561 262.724 3.95693 263.02 5.1702C263.354 6.3559 263.33 7.70705 262.947 9.22364C262.564 10.7402 261.888 12.312 260.918 13.9389C259.883 15.6761 258.626 17.3305 257.146 18.9023C255.705 20.4464 254.091 21.8252 252.304 23.0384C250.54 24.2517 248.664 25.2168 246.674 25.9337C244.702 26.6231 242.685 26.9678 240.625 26.9678H233.325C233.325 26.9678 233.306 26.9816 233.267 27.0091C233.267 27.0091 233.255 27.0091 233.233 27.0091C233.233 27.0091 233.224 27.0229 233.208 27.0505L230.103 32.2621H215.977C217.078 30.4146 218.179 28.5671 219.28 26.7196C220.381 24.8721 221.482 23.0246 222.583 21.1772C223.684 19.3297 224.785 17.4822 225.885 15.6347C226.986 13.7872 228.087 11.9397 229.188 10.0922C230.075 8.60322 230.954 7.12799 231.825 5.66654C232.713 4.17752 233.592 2.70229 234.462 1.24085H255.956ZM241.797 17.9923C242.476 17.9923 243.125 17.8544 243.742 17.5787C244.398 17.2754 244.97 16.9031 245.46 16.4619C245.965 15.9932 246.358 15.5244 246.637 15.0556C246.933 14.5593 247.091 14.1043 247.111 13.6907C247.148 13.2495 247.022 12.891 246.733 12.6153C246.445 12.3396 245.95 12.2017 245.248 12.2017H242.124C242.101 12.2017 242.071 12.2155 242.032 12.243C242.032 12.243 242.023 12.2568 242.007 12.2844L238.63 17.9509C238.653 17.9509 238.656 17.9647 238.64 17.9923C238.662 17.9923 238.674 17.9923 238.674 17.9923H241.797Z" fill="#08004E"/>
</svg>
